<svg xmlns="http://www.w3.org/2000/svg" viewBox="0 0 500 240" role="img" aria-label="Two poses showing high-knees">
<rect width="500" height="240" rx="20" fill="#111a15"/><rect x="10" y="10" width="232" height="220" rx="14" fill="#1c2921"/><rect x="258" y="10" width="232" height="220" rx="14" fill="#1c2921"/>
<path d="M30 190 H220 M280 190 H470" stroke="#82927d" stroke-width="2"/>
<text x="26" y="36" fill="#c6f36a" font-family="Arial" font-size="13" font-weight="700">START</text><text x="274" y="36" fill="#c6f36a" font-family="Arial" font-size="13" font-weight="700">MOVE</text>
<circle cx="125" cy="65" r="13" fill="#ffbd7b" stroke="#fbe0b7" stroke-width="2"/><path d="M125 82 L125 132" fill="none" stroke="#f3ead6" stroke-width="8" stroke-linecap="round" stroke-linejoin="round"/><path d="M125 91 L98 112 L102 132" fill="none" stroke="#f3ead6" stroke-width="8" stroke-linecap="round" stroke-linejoin="round"/><path d="M125 91 L151 112 L147 132" fill="none" stroke="#f3ead6" stroke-width="8" stroke-linecap="round" stroke-linejoin="round"/><path d="M125 132 L104 185" fill="none" stroke="#f3ead6" stroke-width="8" stroke-linecap="round" stroke-linejoin="round"/><path d="M125 132 L147 185" fill="none" stroke="#f3ead6" stroke-width="8" stroke-linecap="round" stroke-linejoin="round"/><circle cx="375" cy="65" r="13" fill="#ffbd7b" stroke="#fbe0b7" stroke-width="2"/><path d="M375 82 L375 132" fill="none" stroke="#f3ead6" stroke-width="8" stroke-linecap="round" stroke-linejoin="round"/><path d="M375 91 L349 104 L355 125" fill="none" stroke="#f3ead6" stroke-width="8" stroke-linecap="round" stroke-linejoin="round"/><path d="M375 91 L400 108 L395 128" fill="none" stroke="#f3ead6" stroke-width="8" stroke-linecap="round" stroke-linejoin="round"/><path d="M375 132 L357 185" fill="none" stroke="#f3ead6" stroke-width="8" stroke-linecap="round" stroke-linejoin="round"/><path d="M375 132 L410 112 L421 145" fill="none" stroke="#f3ead6" stroke-width="8" stroke-linecap="round" stroke-linejoin="round"/><text x="250" y="222" text-anchor="middle" fill="#e6eadf" font-family="Arial" font-size="13">Drive one knee up, then alternate</text></svg>